<mxfile host="65bd71144e">
    <diagram id="D2-qYSoeJpv880CLJjlz" name="Seite-1">
        <mxGraphModel dx="930" dy="782" grid="1" gridSize="10" guides="1" tooltips="1" connect="1" arrows="1" fold="1" page="1" pageScale="1" pageWidth="827" pageHeight="1169" math="0" shadow="0">
            <root>
                <mxCell id="0"/>
                <mxCell id="1" parent="0"/>
                <mxCell id="2" value="Evaluation&lt;br&gt;Controller" style="shape=umlLifeline;perimeter=lifelinePerimeter;whiteSpace=wrap;html=1;container=1;collapsible=0;recursiveResize=0;outlineConnect=0;" parent="1" vertex="1">
                    <mxGeometry x="200" width="100" height="240" as="geometry"/>
                </mxCell>
                <mxCell id="3" value="Evaluation&lt;br&gt;Service" style="shape=umlLifeline;perimeter=lifelinePerimeter;whiteSpace=wrap;html=1;container=1;collapsible=0;recursiveResize=0;outlineConnect=0;" parent="1" vertex="1">
                    <mxGeometry x="460" width="100" height="240" as="geometry"/>
                </mxCell>
                <mxCell id="4" value="Database" style="shape=umlLifeline;perimeter=lifelinePerimeter;whiteSpace=wrap;html=1;container=1;collapsible=0;recursiveResize=0;outlineConnect=0;" parent="1" vertex="1">
                    <mxGeometry x="727" width="100" height="240" as="geometry"/>
                </mxCell>
                <mxCell id="5" value="GET /diagrams/qId" style="html=1;verticalAlign=bottom;endArrow=block;rounded=0;" parent="1" source="11" target="2" edge="1">
                    <mxGeometry width="80" relative="1" as="geometry">
                        <mxPoint x="49.5" y="60" as="sourcePoint"/>
                        <mxPoint x="200" y="100" as="targetPoint"/>
                        <Array as="points">
                            <mxPoint x="150" y="60"/>
                        </Array>
                    </mxGeometry>
                </mxCell>
                <mxCell id="6" value="getDiagramData(qId, pId)" style="html=1;verticalAlign=bottom;endArrow=block;rounded=0;" parent="1" source="2" target="3" edge="1">
                    <mxGeometry width="80" relative="1" as="geometry">
                        <mxPoint x="330" y="120" as="sourcePoint"/>
                        <mxPoint x="410" y="120" as="targetPoint"/>
                        <Array as="points">
                            <mxPoint x="380" y="80"/>
                        </Array>
                    </mxGeometry>
                </mxCell>
                <mxCell id="7" value="getEvaluations(qId, pId)" style="html=1;verticalAlign=bottom;endArrow=block;rounded=0;" parent="1" source="3" target="4" edge="1">
                    <mxGeometry width="80" relative="1" as="geometry">
                        <mxPoint x="570" y="150" as="sourcePoint"/>
                        <mxPoint x="650" y="150" as="targetPoint"/>
                        <Array as="points">
                            <mxPoint x="640" y="100"/>
                        </Array>
                    </mxGeometry>
                </mxCell>
                <mxCell id="8" value="return diagramDataAndEvaluations" style="html=1;verticalAlign=bottom;endArrow=open;dashed=1;endSize=8;rounded=0;" parent="1" source="4" target="3" edge="1">
                    <mxGeometry relative="1" as="geometry">
                        <mxPoint x="690" y="160" as="sourcePoint"/>
                        <mxPoint x="610" y="160" as="targetPoint"/>
                        <Array as="points">
                            <mxPoint x="640" y="120"/>
                        </Array>
                    </mxGeometry>
                </mxCell>
                <mxCell id="9" value="return diagramDataAndEvaluations" style="html=1;verticalAlign=bottom;endArrow=open;dashed=1;endSize=8;rounded=0;" parent="1" source="3" target="2" edge="1">
                    <mxGeometry relative="1" as="geometry">
                        <mxPoint x="420" y="180" as="sourcePoint"/>
                        <mxPoint x="340" y="180" as="targetPoint"/>
                        <Array as="points">
                            <mxPoint x="380" y="140"/>
                        </Array>
                    </mxGeometry>
                </mxCell>
                <mxCell id="10" value="OK(diagramDataAndEvaluations)" style="html=1;verticalAlign=bottom;endArrow=open;dashed=1;endSize=8;rounded=0;" parent="1" source="2" target="11" edge="1">
                    <mxGeometry relative="1" as="geometry">
                        <mxPoint x="210" y="200" as="sourcePoint"/>
                        <mxPoint x="49.5" y="160" as="targetPoint"/>
                        <Array as="points">
                            <mxPoint x="160" y="160"/>
                        </Array>
                    </mxGeometry>
                </mxCell>
                <mxCell id="11" value="" style="shape=umlLifeline;participant=umlActor;perimeter=lifelinePerimeter;whiteSpace=wrap;html=1;container=1;collapsible=0;recursiveResize=0;verticalAlign=top;spacingTop=36;outlineConnect=0;" parent="1" vertex="1">
                    <mxGeometry x="10" width="20" height="240" as="geometry"/>
                </mxCell>
            </root>
        </mxGraphModel>
    </diagram>
</mxfile>